<?xml version="1.0" encoding="UTF-8"?>
<svg viewBox="0 0 1000 540" xmlns="http://www.w3.org/2000/svg" font-family="ui-sans-serif,system-ui,sans-serif"><defs><marker id="m1_a_ana" markerWidth="9" markerHeight="9" refX="7" refY="3.2" orient="auto"><path d="M0,0 L7.5,3.2 L0,6.4 Z" fill="#6b4eff"/></marker><marker id="m1_a_imp" markerWidth="9" markerHeight="9" refX="7" refY="3.2" orient="auto"><path d="M0,0 L7.5,3.2 L0,6.4 Z" fill="#2563eb"/></marker><marker id="m1_a_rev" markerWidth="9" markerHeight="9" refX="7" refY="3.2" orient="auto"><path d="M0,0 L7.5,3.2 L0,6.4 Z" fill="#e8590c"/></marker><marker id="m1_a_dog" markerWidth="9" markerHeight="9" refX="7" refY="3.2" orient="auto"><path d="M0,0 L7.5,3.2 L0,6.4 Z" fill="#0ca678"/></marker></defs><path d="M68.0,178.0 C68.0,300.1 53.4,277.9 53.4,400.0" fill="none" stroke="#6b4eff" stroke-width="2.4" opacity="0.85" stroke-linecap="round" marker-end="url(#m1_a_ana)"/><path d="M192.0,178.0 C192.0,300.1 249.4,277.9 249.4,400.0" fill="none" stroke="#6b4eff" stroke-width="2.4" opacity="0.85" stroke-linecap="round" marker-end="url(#m1_a_ana)"/><path d="M314.7,178.0 C314.7,300.1 500.0,277.9 500.0,400.0" fill="none" stroke="#2563eb" stroke-width="2.4" opacity="0.85" stroke-linecap="round" marker-end="url(#m1_a_imp)"/><path d="M376.7,178.0 C376.7,300.1 696.0,277.9 696.0,400.0" fill="none" stroke="#2563eb" stroke-width="2.4" opacity="0.85" stroke-linecap="round" marker-end="url(#m1_a_imp)"/><path d="M438.7,178.0 C438.7,300.1 837.4,277.9 837.4,400.0" fill="none" stroke="#2563eb" stroke-width="2.4" opacity="0.85" stroke-linecap="round" marker-end="url(#m1_a_imp)"/><path d="M623.3,178.0 C623.3,300.1 946.6,277.9 946.6,400.0" fill="none" stroke="#e8590c" stroke-width="2.4" opacity="0.85" stroke-linecap="round" marker-end="url(#m1_a_rev)"/><path d="M808.0,178.0 C808.0,300.1 162.6,277.9 162.6,400.0" fill="none" stroke="#0ca678" stroke-width="2.4" opacity="0.85" stroke-linecap="round" marker-end="url(#m1_a_dog)"/><path d="M932.0,178.0 C932.0,300.1 358.6,277.9 358.6,400.0" fill="none" stroke="#0ca678" stroke-width="2.4" opacity="0.85" stroke-linecap="round" marker-end="url(#m1_a_dog)"/><rect x="30.0" y="120.0" width="200.0" height="58.0" rx="12" fill="#ece8ff" stroke="#6b4eff" stroke-width="2"/><text x="130.0" y="154.0" text-anchor="middle" font-size="15" font-weight="700" fill="#20233a">medm-analysis</text><rect x="276.7" y="120.0" width="200.0" height="58.0" rx="12" fill="#ece8ff" stroke="#6b4eff" stroke-width="2"/><text x="376.7" y="154.0" text-anchor="middle" font-size="15" font-weight="700" fill="#20233a">medm-implement</text><rect x="523.3" y="120.0" width="200.0" height="58.0" rx="12" fill="#ece8ff" stroke="#6b4eff" stroke-width="2"/><text x="623.3" y="154.0" text-anchor="middle" font-size="15" font-weight="700" fill="#20233a">review-mr</text><rect x="770.0" y="120.0" width="200.0" height="58.0" rx="12" fill="#ece8ff" stroke="#6b4eff" stroke-width="2"/><text x="870.0" y="154.0" text-anchor="middle" font-size="15" font-weight="700" fill="#20233a">datadogagent</text><rect x="20.0" y="400.0" width="176.0" height="54.0" rx="12" fill="#d8f5e3" stroke="#12a150" stroke-width="2"/><text x="108.0" y="432.0" text-anchor="middle" font-size="15" font-weight="700" fill="#20233a">git-analysis</text><rect x="74.0" y="386.0" width="68.0" height="20.0" rx="10" fill="#12a150" stroke="#12a150" stroke-width="0"/><text x="108.0" y="401.0" text-anchor="middle" font-size="10.5" font-weight="800" fill="#fff">SHARED</text><rect x="216.0" y="400.0" width="176.0" height="54.0" rx="12" fill="#d8f5e3" stroke="#12a150" stroke-width="2"/><text x="304.0" y="432.0" text-anchor="middle" font-size="15" font-weight="700" fill="#20233a">bug-fix</text><rect x="270.0" y="386.0" width="68.0" height="20.0" rx="10" fill="#12a150" stroke="#12a150" stroke-width="0"/><text x="304.0" y="401.0" text-anchor="middle" font-size="10.5" font-weight="800" fill="#fff">SHARED</text><rect x="412.0" y="400.0" width="176.0" height="54.0" rx="12" fill="#e0edff" stroke="#2563eb" stroke-width="2"/><text x="500.0" y="432.0" text-anchor="middle" font-size="15" font-weight="700" fill="#20233a">qe-test-cases</text><rect x="608.0" y="400.0" width="176.0" height="54.0" rx="12" fill="#e0edff" stroke="#2563eb" stroke-width="2"/><text x="696.0" y="432.0" text-anchor="middle" font-size="15" font-weight="700" fill="#20233a">testing-ticket</text><rect x="804.0" y="400.0" width="176.0" height="54.0" rx="12" fill="#e0edff" stroke="#2563eb" stroke-width="2"/><text x="892.0" y="432.0" text-anchor="middle" font-size="15" font-weight="700" fill="#20233a">code-review</text><text x="30" y="488.0" font-size="12.5" fill="#6b7280">Line colour = which agent draws on the skill · a green box is one skill reused by more than one agent.</text></svg>