<?xml version="1.0" encoding="UTF-8"?>
<svg viewBox="0 0 1120 540" xmlns="http://www.w3.org/2000/svg" font-family="ui-sans-serif,system-ui,sans-serif"><defs><marker id="m1_a_ana" markerWidth="9" markerHeight="9" refX="7" refY="3.2" orient="auto"><path d="M0,0 L7.5,3.2 L0,6.4 Z" fill="#6b4eff"/></marker><marker id="m1_a_imp" markerWidth="9" markerHeight="9" refX="7" refY="3.2" orient="auto"><path d="M0,0 L7.5,3.2 L0,6.4 Z" fill="#2563eb"/></marker><marker id="m1_a_rev" markerWidth="9" markerHeight="9" refX="7" refY="3.2" orient="auto"><path d="M0,0 L7.5,3.2 L0,6.4 Z" fill="#e8590c"/></marker><marker id="m1_a_dog" markerWidth="9" markerHeight="9" refX="7" refY="3.2" orient="auto"><path d="M0,0 L7.5,3.2 L0,6.4 Z" fill="#0ca678"/></marker><marker id="m1_a_ambs" markerWidth="9" markerHeight="9" refX="7" refY="3.2" orient="auto"><path d="M0,0 L7.5,3.2 L0,6.4 Z" fill="#d6336c"/></marker></defs><path d="M58.0,178.0 C58.0,300.1 56.1,277.9 56.1,400.0" fill="none" stroke="#d6336c" stroke-width="2.4" opacity="0.85" stroke-linecap="round" marker-end="url(#m1_a_ambs)"/><path d="M182.0,178.0 C182.0,300.1 278.6,277.9 278.6,400.0" fill="none" stroke="#d6336c" stroke-width="2.4" opacity="0.85" stroke-linecap="round" marker-end="url(#m1_a_ambs)"/><path d="M278.0,178.0 C278.0,300.1 115.0,277.9 115.0,400.0" fill="none" stroke="#6b4eff" stroke-width="2.4" opacity="0.85" stroke-linecap="round" marker-end="url(#m1_a_ana)"/><path d="M402.0,178.0 C402.0,300.1 337.5,277.9 337.5,400.0" fill="none" stroke="#6b4eff" stroke-width="2.4" opacity="0.85" stroke-linecap="round" marker-end="url(#m1_a_ana)"/><path d="M498.0,178.0 C498.0,300.1 560.0,277.9 560.0,400.0" fill="none" stroke="#2563eb" stroke-width="2.4" opacity="0.85" stroke-linecap="round" marker-end="url(#m1_a_imp)"/><path d="M560.0,178.0 C560.0,300.1 782.5,277.9 782.5,400.0" fill="none" stroke="#2563eb" stroke-width="2.4" opacity="0.85" stroke-linecap="round" marker-end="url(#m1_a_imp)"/><path d="M622.0,178.0 C622.0,300.1 946.1,277.9 946.1,400.0" fill="none" stroke="#2563eb" stroke-width="2.4" opacity="0.85" stroke-linecap="round" marker-end="url(#m1_a_imp)"/><path d="M780.0,178.0 C780.0,300.1 1063.9,277.9 1063.9,400.0" fill="none" stroke="#e8590c" stroke-width="2.4" opacity="0.85" stroke-linecap="round" marker-end="url(#m1_a_rev)"/><path d="M938.0,178.0 C938.0,300.1 173.9,277.9 173.9,400.0" fill="none" stroke="#0ca678" stroke-width="2.4" opacity="0.85" stroke-linecap="round" marker-end="url(#m1_a_dog)"/><path d="M1062.0,178.0 C1062.0,300.1 396.4,277.9 396.4,400.0" fill="none" stroke="#0ca678" stroke-width="2.4" opacity="0.85" stroke-linecap="round" marker-end="url(#m1_a_dog)"/><rect x="20.0" y="120.0" width="200.0" height="58.0" rx="12" fill="#ece8ff" stroke="#6b4eff" stroke-width="2"/><text x="120.0" y="154.0" text-anchor="middle" font-size="15" font-weight="700" fill="#20233a">ambs-debug</text><rect x="240.0" y="120.0" width="200.0" height="58.0" rx="12" fill="#ece8ff" stroke="#6b4eff" stroke-width="2"/><text x="340.0" y="154.0" text-anchor="middle" font-size="15" font-weight="700" fill="#20233a">medm-analysis</text><rect x="460.0" y="120.0" width="200.0" height="58.0" rx="12" fill="#ece8ff" stroke="#6b4eff" stroke-width="2"/><text x="560.0" y="154.0" text-anchor="middle" font-size="15" font-weight="700" fill="#20233a">medm-implement</text><rect x="680.0" y="120.0" width="200.0" height="58.0" rx="12" fill="#ece8ff" stroke="#6b4eff" stroke-width="2"/><text x="780.0" y="154.0" text-anchor="middle" font-size="15" font-weight="700" fill="#20233a">review-mr</text><rect x="900.0" y="120.0" width="200.0" height="58.0" rx="12" fill="#ece8ff" stroke="#6b4eff" stroke-width="2"/><text x="1000.0" y="154.0" text-anchor="middle" font-size="15" font-weight="700" fill="#20233a">datadogagent</text><rect x="20.0" y="400.0" width="190.0" height="54.0" rx="12" fill="#d8f5e3" stroke="#12a150" stroke-width="2"/><text x="115.0" y="432.0" text-anchor="middle" font-size="15" font-weight="700" fill="#20233a">git-analysis</text><rect x="81.0" y="386.0" width="68.0" height="20.0" rx="10" fill="#12a150" stroke="#12a150" stroke-width="0"/><text x="115.0" y="401.0" text-anchor="middle" font-size="10.5" font-weight="800" fill="#fff">SHARED</text><rect x="242.5" y="400.0" width="190.0" height="54.0" rx="12" fill="#d8f5e3" stroke="#12a150" stroke-width="2"/><text x="337.5" y="432.0" text-anchor="middle" font-size="15" font-weight="700" fill="#20233a">bug-fix</text><rect x="303.5" y="386.0" width="68.0" height="20.0" rx="10" fill="#12a150" stroke="#12a150" stroke-width="0"/><text x="337.5" y="401.0" text-anchor="middle" font-size="10.5" font-weight="800" fill="#fff">SHARED</text><rect x="465.0" y="400.0" width="190.0" height="54.0" rx="12" fill="#e0edff" stroke="#2563eb" stroke-width="2"/><text x="560.0" y="432.0" text-anchor="middle" font-size="15" font-weight="700" fill="#20233a">qe-test-cases</text><rect x="687.5" y="400.0" width="190.0" height="54.0" rx="12" fill="#e0edff" stroke="#2563eb" stroke-width="2"/><text x="782.5" y="432.0" text-anchor="middle" font-size="15" font-weight="700" fill="#20233a">testing-ticket</text><rect x="910.0" y="400.0" width="190.0" height="54.0" rx="12" fill="#e0edff" stroke="#2563eb" stroke-width="2"/><text x="1005.0" y="432.0" text-anchor="middle" font-size="15" font-weight="700" fill="#20233a">code-review</text><text x="30" y="488.0" font-size="12.5" fill="#6b7280">Line colour = which agent draws on the skill · a green box is one skill reused by more than one agent.</text></svg>