<?xml version="1.0" encoding="UTF-8"?>
<svg viewBox="0 0 720 560" xmlns="http://www.w3.org/2000/svg" font-family="ui-sans-serif,system-ui,sans-serif"><defs><marker id="m2" markerWidth="9" markerHeight="9" refX="7" refY="3.2" orient="auto"><path d="M0,0 L7.5,3.2 L0,6.4 Z" fill="#6b4eff"/></marker></defs><path d="M425.0,121.5 A190,190 0 0 1 509.7,183.0" fill="none" stroke="#6b4eff" stroke-width="2.4" opacity="0.55" marker-end="url(#m2)"/><path d="M549.9,306.6 A190,190 0 0 1 517.5,406.2" fill="none" stroke="#6b4eff" stroke-width="2.4" opacity="0.55" marker-end="url(#m2)"/><path d="M412.4,482.6 A190,190 0 0 1 307.6,482.6" fill="none" stroke="#6b4eff" stroke-width="2.4" opacity="0.55" marker-end="url(#m2)"/><path d="M202.5,406.2 A190,190 0 0 1 170.1,306.6" fill="none" stroke="#6b4eff" stroke-width="2.4" opacity="0.55" marker-end="url(#m2)"/><path d="M210.3,183.0 A190,190 0 0 1 295.0,121.5" fill="none" stroke="#6b4eff" stroke-width="2.4" opacity="0.55" marker-end="url(#m2)"/><circle cx="360" cy="300" r="70" fill="#f6f4ff" stroke="#6b4eff" stroke-width="1.5" stroke-dasharray="4 4"/><text x="360.0" y="298.0" text-anchor="middle" font-size="17" font-weight="700" fill="#20233a">Continuous</text><text x="360.0" y="314.0" text-anchor="middle" font-size="11" fill="#6b7280" font-family="ui-monospace,Menlo,monospace">one loop</text><text x="360" y="330.0" text-anchor="middle" font-size="10.5" fill="#6b7280">prod signal → next plan</text><rect x="276.0" y="79.0" width="168.0" height="62.0" rx="12" fill="#ece8ff" stroke="#6b4eff" stroke-width="2"/><circle cx="292.0" cy="95.0" r="10" fill="#6b4eff"/><text x="292.0" y="99.0" text-anchor="middle" font-size="11" font-weight="800" fill="#fff">1</text><text x="360.0" y="108.0" text-anchor="middle" font-size="14" font-weight="700" fill="#20233a">Plan &amp; estimate</text><text x="360.0" y="123.0" text-anchor="middle" font-size="10" fill="#6b7280" font-family="ui-monospace,Menlo,monospace">AscArchDocAgent</text><rect x="456.7" y="210.3" width="168.0" height="62.0" rx="12" fill="#ece8ff" stroke="#6b4eff" stroke-width="2"/><circle cx="472.7" cy="226.3" r="10" fill="#6b4eff"/><text x="472.7" y="230.3" text-anchor="middle" font-size="11" font-weight="800" fill="#fff">2</text><text x="540.7" y="239.3" text-anchor="middle" font-size="14" font-weight="700" fill="#20233a">Implement</text><text x="540.7" y="254.3" text-anchor="middle" font-size="10" fill="#6b7280" font-family="ui-monospace,Menlo,monospace">medm-implement</text><rect x="387.7" y="422.7" width="168.0" height="62.0" rx="12" fill="#ece8ff" stroke="#6b4eff" stroke-width="2"/><circle cx="403.7" cy="438.7" r="10" fill="#6b4eff"/><text x="403.7" y="442.7" text-anchor="middle" font-size="11" font-weight="800" fill="#fff">3</text><text x="471.7" y="451.7" text-anchor="middle" font-size="14" font-weight="700" fill="#20233a">Test</text><text x="471.7" y="466.7" text-anchor="middle" font-size="10" fill="#6b7280" font-family="ui-monospace,Menlo,monospace">qe-test-cases</text><rect x="164.3" y="422.7" width="168.0" height="62.0" rx="12" fill="#ece8ff" stroke="#6b4eff" stroke-width="2"/><circle cx="180.3" cy="438.7" r="10" fill="#6b4eff"/><text x="180.3" y="442.7" text-anchor="middle" font-size="11" font-weight="800" fill="#fff">4</text><text x="248.3" y="451.7" text-anchor="middle" font-size="14" font-weight="700" fill="#20233a">Review</text><text x="248.3" y="466.7" text-anchor="middle" font-size="10" fill="#6b7280" font-family="ui-monospace,Menlo,monospace">code-review</text><rect x="95.3" y="210.3" width="168.0" height="62.0" rx="12" fill="#ece8ff" stroke="#6b4eff" stroke-width="2"/><circle cx="111.3" cy="226.3" r="10" fill="#6b4eff"/><text x="111.3" y="230.3" text-anchor="middle" font-size="11" font-weight="800" fill="#fff">5</text><text x="179.3" y="239.3" text-anchor="middle" font-size="14" font-weight="700" fill="#20233a">Operate</text><text x="179.3" y="254.3" text-anchor="middle" font-size="10" fill="#6b7280" font-family="ui-monospace,Menlo,monospace">datadogagent</text></svg>