<?xml version="1.0" encoding="UTF-8"?>
<svg viewBox="0 0 1080 320" xmlns="http://www.w3.org/2000/svg" font-family="ui-sans-serif,system-ui,sans-serif"><defs><marker id="m3g" markerWidth="9" markerHeight="9" refX="7" refY="3.2" orient="auto"><path d="M0,0 L7.5,3.2 L0,6.4 Z" fill="#d97706"/></marker></defs><defs><marker id="m3" markerWidth="9" markerHeight="9" refX="7" refY="3.2" orient="auto"><path d="M0,0 L7.5,3.2 L0,6.4 Z" fill="#9aa3b2"/></marker></defs><path d="M244.0,186.0 L294.0,186.0" fill="none" stroke="#9aa3b2" stroke-width="2.4" stroke-linecap="round" marker-end="url(#m3)"/><path d="M514.0,186.0 L564.0,186.0" fill="none" stroke="#9aa3b2" stroke-width="2.4" stroke-linecap="round" marker-end="url(#m3)"/><path d="M784.0,186.0 L834.0,186.0" fill="none" stroke="#9aa3b2" stroke-width="2.4" stroke-linecap="round" marker-end="url(#m3)"/><rect x="30.0" y="150.0" width="210.0" height="72.0" rx="12" fill="#e0edff" stroke="#2563eb" stroke-width="2"/><text x="135.0" y="184.0" text-anchor="middle" font-size="17" font-weight="700" fill="#20233a">Observe</text><text x="135.0" y="200.0" text-anchor="middle" font-size="11" fill="#6b7280" font-family="ui-monospace,Menlo,monospace">Datadog APM + logs</text><rect x="300.0" y="150.0" width="210.0" height="72.0" rx="12" fill="#e0edff" stroke="#2563eb" stroke-width="2"/><text x="405.0" y="184.0" text-anchor="middle" font-size="17" font-weight="700" fill="#20233a">Attribute</text><text x="405.0" y="200.0" text-anchor="middle" font-size="11" fill="#6b7280" font-family="ui-monospace,Menlo,monospace">git blame → commit·author·MR</text><rect x="570.0" y="150.0" width="210.0" height="72.0" rx="12" fill="#fef3c7" stroke="#d97706" stroke-width="2"/><text x="675.0" y="184.0" text-anchor="middle" font-size="17" font-weight="700" fill="#20233a">Remediate</text><text x="675.0" y="200.0" text-anchor="middle" font-size="11" fill="#6b7280" font-family="ui-monospace,Menlo,monospace">preview → apply → commit → MR</text><text x="675.0" y="134.0" text-anchor="middle" font-size="12" font-weight="700" fill="#d97706">✋ you approve first</text><path d="M675.0,140.0 L675.0,148.0" stroke="#d97706" stroke-width="2" marker-end="url(#m3g)"/><rect x="840.0" y="150.0" width="210.0" height="72.0" rx="12" fill="#e0edff" stroke="#2563eb" stroke-width="2"/><text x="945.0" y="184.0" text-anchor="middle" font-size="17" font-weight="700" fill="#20233a">Document</text><text x="945.0" y="200.0" text-anchor="middle" font-size="11" fill="#6b7280" font-family="ui-monospace,Menlo,monospace">markdown report + Jira</text><text x="30" y="262.0" font-size="12.5" fill="#6b7280">A regression is flagged when an error is first seen ≤30 min after a deploy.</text></svg>