<?xml version="1.0" encoding="UTF-8"?>
<svg viewBox="0 0 1080 420" xmlns="http://www.w3.org/2000/svg" font-family="ui-sans-serif,system-ui,sans-serif"><defs><marker id="m4" markerWidth="9" markerHeight="9" refX="7" refY="3.2" orient="auto"><path d="M0,0 L7.5,3.2 L0,6.4 Z" fill="#9aa3b2"/></marker><marker id="m4g" markerWidth="9" markerHeight="9" refX="7" refY="3.2" orient="auto"><path d="M0,0 L7.5,3.2 L0,6.4 Z" fill="#12a150"/></marker><marker id="m4y" markerWidth="9" markerHeight="9" refX="7" refY="3.2" orient="auto"><path d="M0,0 L7.5,3.2 L0,6.4 Z" fill="#d97706"/></marker></defs><rect x="40.0" y="150.0" width="190.0" height="64.0" rx="12" fill="#ece8ff" stroke="#6b4eff" stroke-width="2"/><text x="135.0" y="186.0" text-anchor="middle" font-size="15" font-weight="700" fill="#20233a">Agent proposes fix</text><rect x="300.0" y="150.0" width="190.0" height="64.0" rx="12" fill="#e0edff" stroke="#2563eb" stroke-width="2"/><text x="395.0" y="180.0" text-anchor="middle" font-size="15" font-weight="700" fill="#20233a">Preview diff</text><text x="395.0" y="196.0" text-anchor="middle" font-size="11" fill="#6b7280" font-family="ui-monospace,Menlo,monospace">before / after</text><rect x="880.0" y="150.0" width="180.0" height="64.0" rx="12" fill="#d8f5e3" stroke="#12a150" stroke-width="2"/><text x="970.0" y="186.0" text-anchor="middle" font-size="14" font-weight="700" fill="#20233a">Apply → commit → MR</text><rect x="595.0" y="300.0" width="190.0" height="58.0" rx="12" fill="#ece8ff" stroke="#6b4eff" stroke-width="2"/><text x="690.0" y="333.0" text-anchor="middle" font-size="15" font-weight="700" fill="#20233a">Revise the fix</text><polygon points="690,122.0 765.0,182.0 690,242.0 615.0,182.0" fill="#fef3c7" stroke="#d97706" stroke-width="2"/><text x="690.0" y="186.0" text-anchor="middle" font-size="15" font-weight="700" fill="#20233a">Approve?</text><path d="M234.0,182.0 L294.0,182.0" fill="none" stroke="#9aa3b2" stroke-width="2.4" stroke-linecap="round" marker-end="url(#m4)"/><path d="M494.0,182.0 L609.0,182.0" fill="none" stroke="#9aa3b2" stroke-width="2.4" stroke-linecap="round" marker-end="url(#m4)"/><path d="M767.0,182.0 L874.0,182.0" fill="none" stroke="#12a150" stroke-width="2.4" stroke-linecap="round" marker-end="url(#m4g)"/><text x="822.5" y="172.0" text-anchor="middle" font-size="12" font-weight="700" fill="#12a150">yes</text><path d="M690.0,242.0 L690.0,294.0" fill="none" stroke="#d97706" stroke-width="2.4" marker-end="url(#m4y)"/><text x="698.0" y="277.0" font-size="12" font-weight="700" fill="#d97706">changes requested</text><path d="M589.0,329.0 H395.0 V220.0" fill="none" stroke="#6b7280" stroke-width="2" stroke-dasharray="6 5" marker-end="url(#m4)"/><text x="30" y="396.0" font-size="13" font-weight="600" fill="#12a150">Nothing is written to a file until you approve — no auto-push, no auto-merge.</text></svg>